<?xml version="1.0" standalone="no"?>
<svg xmlns="http://www.w3.org/2000/svg" viewBox="0 0 142.704 36" width="142.704" height="36"><g fill="#a16aff" color="#a16aff" transform="translate(0 4) scale(0.6363637)"><svg width="44.0" height="44.0" x="0.0" y="0.0" viewBox="0 0 44 44"><path fill="currentColor" fill-rule="evenodd" d="M44 14.667V44H14.667v-7.426c.605.056 1.213.094 1.832.094 11.122 0 20.168-9.047 20.168-20.168 0-.62-.037-1.227-.094-1.833H44zm-29.333 0h18.227c.065.603.106 1.213.106 1.834 0 9.112-7.387 16.498-16.5 16.498-.465 0-.925-.023-1.38-.063l-.453-.045V14.666h18.227zM16.5 0c7.06 0 13.067 4.441 15.422 10.676l.119.324H10.999v21.04C4.596 29.775 0 23.683 0 16.5 0 7.388 7.387 0 16.5 0z"></path></svg></g><path fill="#5e00ff" fill-rule="nonzero" d="M9.26 0.89Q10.80 0.89 12 1.60Q13.20 2.30 13.87 3.54Q14.54 4.78 14.54 6.31L14.54 6.31L14.54 6.62Q14.54 8.16 13.87 9.41Q13.20 10.66 12 11.36Q10.80 12.07 9.26 12.07L9.26 12.07L5.30 12.07L5.30 17.40L0 17.40L0 0.89L9.26 0.89ZM5.30 4.80L5.30 8.21L7.49 8.21Q8.33 8.21 8.75 7.78Q9.17 7.34 9.17 6.60L9.17 6.60L9.17 6.41Q9.17 5.64 8.75 5.22Q8.33 4.80 7.49 4.80L7.49 4.80L5.30 4.80ZM21.94 17.40L17.16 17.40L17.16 0L21.94 0L21.94 17.40ZM31.25 4.44Q34.15 4.44 35.98 5.41Q37.80 6.38 37.80 8.57L37.80 8.57L37.80 13.51Q37.80 13.92 37.99 14.18Q38.18 14.45 38.57 14.45L38.57 14.45L39.43 14.45L39.43 17.21Q39.36 17.26 39.06 17.36Q38.76 17.47 38.21 17.58Q37.66 17.69 36.94 17.69L36.94 17.69Q35.54 17.69 34.64 17.27Q33.74 16.85 33.41 16.10L33.41 16.10Q32.50 16.82 31.37 17.26Q30.24 17.69 28.73 17.69L28.73 17.69Q24.26 17.69 24.26 14.14L24.26 14.14Q24.26 12.29 25.26 11.32Q26.26 10.34 28.13 9.98Q30 9.62 33.02 9.62L33.02 9.62L33.02 9.00Q33.02 8.26 32.51 7.87Q31.99 7.49 31.18 7.49L31.18 7.49Q30.43 7.49 29.89 7.75Q29.35 8.02 29.35 8.59L29.35 8.59L29.35 8.69L24.65 8.69Q24.62 8.57 24.62 8.35L24.62 8.35Q24.62 6.55 26.34 5.50Q28.06 4.44 31.25 4.44L31.25 4.44ZM33.02 11.88Q30.98 11.88 30.01 12.32Q29.04 12.77 29.04 13.51L29.04 13.51Q29.04 14.71 30.67 14.71L30.67 14.71Q31.61 14.71 32.32 14.21Q33.02 13.70 33.02 12.96L33.02 12.96L33.02 11.88ZM49.73 4.44Q51.94 4.44 53.04 5.66Q54.14 6.89 54.14 9.19L54.14 9.19L54.14 17.40L49.37 17.40L49.37 9.77Q49.37 8.95 48.95 8.46Q48.53 7.97 47.76 7.97L47.76 7.97Q46.87 7.97 46.32 8.54Q45.77 9.12 45.77 9.96L45.77 9.96L45.77 17.40L40.99 17.40L40.99 4.73L44.90 4.73L45.22 6.65Q45.96 5.64 47.17 5.04Q48.38 4.44 49.73 4.44L49.73 4.44ZM73.78 17.40L68.47 17.40L68.47 11.14L62.64 11.14L62.64 17.40L57.34 17.40L57.34 0.89L62.64 0.89L62.64 6.91L68.47 6.91L68.47 0.89L73.78 0.89L73.78 17.40ZM90.10 17.40L86.18 17.40L85.87 15.48Q85.13 16.51 83.92 17.10Q82.70 17.69 81.36 17.69L81.36 17.69Q79.15 17.69 78.05 16.46Q76.94 15.24 76.94 12.94L76.94 12.94L76.94 4.73L81.72 4.73L81.72 12.36Q81.72 13.18 82.14 13.67Q82.56 14.16 83.33 14.16L83.33 14.16Q84.22 14.16 84.77 13.58Q85.32 13.01 85.32 12.17L85.32 12.17L85.32 4.73L90.10 4.73L90.10 17.40ZM97.80 5.90Q99.17 4.44 101.35 4.44L101.35 4.44Q103.92 4.44 105.31 6.11Q106.70 7.78 106.70 11.04L106.70 11.04Q106.70 14.33 105.31 16.01Q103.92 17.69 101.35 17.69L101.35 17.69Q98.71 17.69 97.32 15.60L97.32 15.60L96.91 17.40L93.02 17.40L93.02 0L97.80 0L97.80 5.90ZM99.86 7.97Q98.81 7.97 98.28 8.72Q97.75 9.48 97.75 10.68L97.75 10.68L97.75 11.47Q97.75 12.67 98.28 13.42Q98.81 14.16 99.86 14.16L99.86 14.16Q101.93 14.16 101.93 11.71L101.93 11.71L101.93 10.44Q101.93 7.97 99.86 7.97L99.86 7.97Z" transform="translate(36, 9.3)"></path></svg>